# ProBuilder 4.2.3
# https://unity3d.com/unity/features/worldbuilding/probuilder
# 3/25/2020 12:41:37 PM

mtllib ./GalleryBuilding.mtl
o GalleryBuilding

g Roof
v -0.875 3 -1.25
v -11.875 3 -1.25
v -0.875 3.125 -1.25
v -11.875 3.125 -1.25
v -11.875 3 -8.625
v -11.875 3.125 -8.625
v -0.875 3 -8.625
v -0.875 3.125 -8.625
v -5.641197 3.031084 -5.709488
v -7.608803 3.031084 -5.709488
v -5.641197 3.031084 -7.540512
v -7.608803 3.031084 -7.540512
v -5.641197 3 -7.540512
v -7.608803 3 -7.540512
v -5.641197 3 -5.709488
v -7.608803 3 -5.709488

vt 0 0
vt -11 0
vt 0 0.125
vt -11 0.125
vt -7.375 0
vt -7.375 0.125
vt 11 0
vt 11 0.125
vt 7.375 0
vt 7.375 0.125
vt 0 0.002631899
vt 11 0.002631899
vt 4.766197 -4.457845
vt 6.733803 -4.457845
vt -0.002462602 -7.375
vt -0.002462602 0
vt 4.76466 -6.290512
vt 4.76466 -4.459488
vt 11.00009 -7.375
vt 6.732856 -4.459488
vt 6.732856 -6.290512
vt 11 -7.358285
vt 0 -7.358285
vt 6.733803 -6.269738
vt 4.766197 -6.269738
vt 0 -7.375
vt -11 -7.375
vt -4.766197 -6.290512
vt -6.733803 -6.290512
vt -4.766197 -4.459488
vt -6.733803 -4.459488
vt -4.459488 0.03108382
vt -6.290512 0.03108382
vt -4.459488 0
vt -6.290512 0
vt 6.733803 0.03108382
vt 4.766197 0.03108382
vt 6.733803 0
vt 4.766197 0
vt -6.733803 0
vt -4.766197 0
vt -6.733803 0.03108382
vt -4.766197 0.03108382
vt 4.459488 0
vt 6.290512 0
vt 4.459488 0.03108382
vt 6.290512 0.03108382

vn 0 0 1
vn -1 0 0
vn 0 0 -1
vn 1 0 0
vn 0 0.9997783 -0.02105519
vn -0.01970081 0.9998059 0
vn 0.02200869 0.9997578 0
vn 0 0.9962713 0.08627665
vn 0 -1 0

usemtl ProBuilder_Default_URP
f 3/3/1 4/4/1 2/2/1 1/1/1
f 4/3/2 6/6/2 5/5/2 2/1/2
f 6/8/3 8/3/3 7/1/3 5/7/3
f 8/10/4 3/3/4 1/1/4 7/9/4
f 9/13/5 10/14/5 4/12/5 3/11/5
f 11/17/6 9/18/6 3/16/6 8/15/6
f 10/20/7 12/21/7 6/19/7 4/7/7
f 12/24/8 11/25/8 8/23/8 6/22/8
f 13/28/9 14/29/9 5/27/9 7/26/9
f 15/30/9 13/28/9 7/26/9 1/1/9
f 14/29/9 16/31/9 2/2/9 5/27/9
f 16/31/9 15/30/9 1/1/9 2/2/9
f 13/35/2 15/34/2 9/32/2 11/33/2
f 15/39/3 16/38/3 10/36/3 9/37/3
f 11/43/1 12/42/1 14/40/1 13/41/1
f 12/47/4 10/46/4 16/44/4 14/45/4

g Floor
v 1.125 -0.05 1.125
v -13.875 -0.05 1.125
v 1.125 0.05 1.125
v -13.875 0.05 1.125
v -13.875 -0.05 -10.875
v -13.875 0.05 -10.875
v 1.125 -0.05 -10.875
v 1.125 0.05 -10.875

vt 1.375 0
vt -13.625 0
vt 1.375 0.1
vt -13.625 0.1
vt 1 0
vt -11 0
vt 1 0.1
vt -11 0.1
vt 13.625 0
vt -1.375 0
vt 13.625 0.1
vt -1.375 0.1
vt 11 0
vt -1 0
vt 11 0.1
vt -1 0.1
vt -1.375 1
vt 13.625 1
vt -1.375 -11
vt 13.625 -11
vt 1.375 -11
vt -13.625 -11
vt 1.375 1
vt -13.625 1

vn 0 0 1
vn -1 0 0
vn 0 0 -1
vn 1 0 0
vn 0 1 0
vn 0 -1 0

usemtl ProBuilder_Default_URP
f 19/50/10 20/51/10 18/49/10 17/48/10
f 20/54/11 22/55/11 21/53/11 18/52/11
f 22/58/12 24/59/12 23/57/12 21/56/12
f 24/62/13 19/63/13 17/61/13 23/60/13
f 24/66/14 22/67/14 20/65/14 19/64/14
f 17/70/15 18/71/15 21/69/15 23/68/15

g Walls
v -11.875 0 -1.25
v -11.875 0 -1.375
v -11.875 3 -1.25
v -11.875 3 -1.375
v -0.875 0 -1.375
v -0.875 0 -1.25
v -0.875 3 -1.375
v -0.875 3 -1.25
v -11.75 0 -1.25
v -11.75 3 -1.25
v -11.875 0 -8.625
v -11.75 0 -8.625
v -11.75 3 -8.625
v -11.875 3 -8.625
v -11.75 3 -1.375
v -11.75 0 -1.375
v -0.875 3 -8.5
v -0.875 3 -8.625
v -0.875 0 -8.625
v -0.875 0 -8.5
v -11.875 3 -8.5
v -11.75 3 -8.5
v -11.875 0 -8.5
v -11.75 0 -8.5
v -1 3 -1.25
v -1 0 -1.25
v -1 3 -8.625
v -1 3 -8.5
v -1 0 -8.625
v -1 0 -8.5
v -8.125 0 -1.25
v -8.125 3 -1.25
v -8.125 3 -1.375
v -8.125 0 -1.375
v -8.25 0 -1.25
v -8.25 3 -1.25
v -8.125 0 -4.5
v -8.125 3 -4.5
v -8.25 3 -4.5
v -8.25 0 -4.5
v -8.25 3 -1.375
v -8.25 0 -1.375
v -4.75 0 -8.5
v -4.75 3 -8.5
v -4.75 3 -8.625
v -4.75 0 -8.625
v -4.625 0 -8.5
v -4.625 3 -8.5
v -4.625 0 -5.5
v -4.75 0 -5.5
v -4.75 3 -5.5
v -4.625 3 -5.5
v -4.625 3 -8.625
v -4.625 0 -8.625
v -11.75 3 -3.875
v -11.75 0 -3.875
v -11.875 3 -3.875
v -11.875 0 -3.875
v -11.75 3 -2
v -11.75 0 -2
v -11.875 3 -2
v -11.875 0 -2
v -1 0 -6.25
v -0.875 0 -6.25
v -1 3 -6.25
v -0.875 3 -6.25
v -1 0 -8
v -0.875 0 -8
v -1 3 -8
v -0.875 3 -8

vt 0 0
vt -0.125 0
vt 0 3
vt -0.125 3
vt 0.125 0
vt 0.125 3
vt -10.875 0
vt -11 0
vt -11 3
vt -10.875 3
vt 11 0
vt 10.875 0
vt 10.875 3
vt 11 3
vt 11 -0.125
vt 10.875 -0.125
vt -10.875 -0.125
vt -11 -0.125
vt 7.25 3
vt 7.375 3
vt 7.375 0
vt 7.25 0
vt 11 -7.25
vt 11 -7.375
vt 10.875 -7.375
vt 10.875 -7.25
vt -7.25 0
vt -7.375 0
vt -7.375 3
vt -7.25 3
vt -10.875 -7.25
vt -10.875 -7.375
vt -11 -7.375
vt -11 -7.25
vt 0.125 -7.375
vt 0 -7.375
vt 0 -7.25
vt 0.125 -7.25
vt -0.125 -7.25
vt -0.125 -7.375
vt 7.25 -0.125
vt 0 -0.125
vt -7.25 -0.125
vt 7.375 -0.125
vt -7.375 -0.125
vt 3.25 0
vt 3.25 3
vt 7.25 -3.25
vt 7.375 -3.25
vt -3.25 3
vt -3.25 0
vt -7.375 -3.25
vt -7.25 -3.25
vt -3.875 0
vt -3.875 3
vt 3.875 -7.375
vt 3.875 -7.25
vt 3.875 3
vt 3.875 0
vt -3.875 -7.25
vt -3.875 -7.375
vt -3.75 0
vt -3.75 3
vt 3.75 -7.375
vt 3.75 -7.25
vt 3.75 3
vt 3.75 0
vt -3.75 -7.25
vt -3.75 -7.375
vt -3.75 -4.25
vt -3.875 -4.25
vt -4.25 0
vt -4.25 3
vt 4.25 3
vt 4.25 0
vt 3.875 -4.25
vt 3.75 -4.25
vt 2.625 3
vt 2.625 0
vt 10.875 -2.625
vt 11 -2.625
vt -2.625 0
vt -2.625 3
vt -11 -2.625
vt -10.875 -2.625
vt 0.75 3
vt 0.75 0
vt 10.875 -0.75
vt 11 -0.75
vt -0.75 0
vt -0.75 3
vt -11 -0.75
vt -10.875 -0.75
vt -0.125 -5
vt 0 -5
vt -5 3
vt -5 0
vt 5 0
vt 5 3
vt 0.125 -5
vt -0.125 -6.75
vt 0 -6.75
vt -6.75 0
vt -6.75 3
vt 6.75 3
vt 6.75 0
vt 0.125 -6.75

vn -1 0 0
vn 1 0 0
vn 0 0 1
vn 0 0 -1
vn 0 1 0
vn 0 -1 0

usemtl ProBuilder_Default_URP
f 27/74/16 28/75/16 26/73/16 25/72/16
f 31/77/17 32/74/17 30/72/17 29/76/17
f 34/81/18 27/80/18 25/79/18 33/78/18
f 35/82/19 38/85/19 37/84/19 36/83/19
f 27/82/20 34/83/20 39/87/20 28/86/20
f 40/88/21 33/78/21 25/79/21 26/89/21
f 43/92/17 42/91/17 41/90/17 44/93/17
f 45/94/20 46/97/20 37/96/20 38/95/20
f 45/101/16 38/100/16 35/99/16 47/98/16
f 36/103/21 48/102/21 47/105/21 35/104/21
f 32/74/18 49/75/18 50/73/18 30/72/18
f 52/109/20 41/108/20 42/107/20 51/106/20
f 53/76/19 51/77/19 42/74/19 43/72/19
f 43/107/21 44/108/21 54/110/21 53/111/21
f 32/74/18 56/101/18 55/98/18 30/72/18
f 58/93/19 57/90/19 31/74/19 29/72/19
f 56/93/20 32/72/20 31/113/20 57/112/20
f 29/113/21 30/72/21 55/98/21 58/114/21
f 56/101/18 60/100/18 59/99/18 55/98/18
f 60/100/18 34/81/18 33/78/18 59/99/18
f 64/92/19 63/91/19 62/90/19 61/93/19
f 40/83/19 39/84/19 65/91/19 66/92/19
f 34/83/20 60/92/20 65/115/20 39/87/20
f 60/92/20 56/93/20 57/112/20 65/115/20
f 66/116/21 59/99/21 33/78/21 40/88/21
f 58/114/21 55/98/21 59/99/21 66/116/21
f 61/117/17 62/118/17 57/77/17 58/76/17
f 62/119/20 63/120/20 65/115/20 57/112/20
f 63/121/16 64/122/16 66/73/16 65/75/16
f 64/123/21 61/124/21 58/114/21 66/116/21
f 68/126/18 46/81/18 48/78/18 67/125/18
f 46/97/20 68/128/20 69/127/20 37/96/20
f 36/83/19 37/84/19 69/129/19 70/130/19
f 70/132/21 67/131/21 48/102/21 36/103/21
f 52/75/18 72/134/18 71/133/18 54/73/18
f 76/134/18 75/126/18 74/125/18 73/133/18
f 68/128/20 72/136/20 77/135/20 69/127/20
f 72/136/20 52/109/20 51/106/20 77/135/20
f 78/138/19 77/137/19 51/77/19 53/76/19
f 70/130/19 69/129/19 77/137/19 78/138/19
f 78/140/21 71/139/21 67/131/21 70/132/21
f 53/111/21 54/110/21 71/139/21 78/140/21
f 73/141/21 74/142/21 67/131/21 71/139/21
f 74/143/16 75/144/16 68/101/16 67/98/16
f 76/145/17 73/146/17 71/93/17 72/90/17
f 75/147/20 76/148/20 72/136/20 68/128/20
f 48/93/17 46/90/17 79/149/17 80/150/17
f 81/152/20 79/151/20 46/97/20 45/94/20
f 81/154/16 45/101/16 47/98/16 82/153/16
f 48/102/21 80/156/21 82/155/21 47/105/21
f 84/158/17 83/157/17 39/77/17 40/76/17
f 28/86/20 39/87/20 83/159/20 85/160/20
f 28/75/16 85/162/16 86/161/16 26/73/16
f 80/156/21 84/164/21 86/163/21 82/155/21
f 84/164/21 40/88/21 26/89/21 86/163/21
f 80/78/18 79/81/18 81/80/18 82/79/18
f 83/84/19 84/83/19 86/82/19 85/85/19
f 88/166/21 30/72/21 50/73/21 87/165/21
f 49/74/16 89/167/16 87/168/16 50/72/16
f 88/169/17 90/170/17 32/74/17 30/72/17
f 49/76/20 32/72/20 90/166/20 89/171/20
f 44/108/21 92/173/21 91/172/21 54/110/21
f 92/173/21 88/166/21 87/165/21 91/172/21
f 93/175/16 52/101/16 54/98/16 91/174/16
f 44/93/17 41/90/17 94/176/17 92/177/17
f 93/178/20 94/173/20 41/108/20 52/109/20
f 90/74/19 88/72/19 87/76/19 89/77/19
f 93/75/18 91/73/18 92/72/18 94/74/18

